<?xml version="1.0" encoding="UTF-8" standalone="no"?>
<svg
   xmlns:dc="http://purl.org/dc/elements/1.1/"
   xmlns:cc="http://creativecommons.org/ns#"
   xmlns:rdf="http://www.w3.org/1999/02/22-rdf-syntax-ns#"
   xmlns:svg="http://www.w3.org/2000/svg"
   xmlns="http://www.w3.org/2000/svg"
   xmlns:sodipodi="http://sodipodi.sourceforge.net/DTD/sodipodi-0.dtd"
   xmlns:inkscape="http://www.inkscape.org/namespaces/inkscape"
   version="1.1"
   id="svg2"
   xml:space="preserve"
   width="1049.96"
   height="240"
   viewBox="0 0 1049.96 240"
   sodipodi:docname="the-vector-converter-1223-NeeEOWrtGJeicWJz.eps"><metadata
     id="metadata8"><rdf:RDF><cc:Work
         rdf:about=""><dc:format>image/svg+xml</dc:format><dc:type
           rdf:resource="http://purl.org/dc/dcmitype/StillImage" /></cc:Work></rdf:RDF></metadata><defs
     id="defs6" /><sodipodi:namedview
     pagecolor="#ffffff"
     bordercolor="#666666"
     borderopacity="1"
     objecttolerance="10"
     gridtolerance="10"
     guidetolerance="10"
     inkscape:pageopacity="0"
     inkscape:pageshadow="2"
     inkscape:window-width="640"
     inkscape:window-height="480"
     id="namedview4" /><g
     id="g10"
     inkscape:groupmode="layer"
     inkscape:label="ink_ext_XXXXXX"
     transform="matrix(1.3333333,0,0,-1.3333333,0,240)"><g
       id="g12"
       transform="scale(0.1)"><path
         d="m 1800.83,1439.98 c -799.32,0 -1440.06,-239.59 -1440.06,-539.98 0,-298.559 646.02,-540 1440.06,-540 794.06,0 1440.08,242.25 1440.08,540 0,297.74 -646.02,539.98 -1440.08,539.98"
         style="fill:#192b49;fill-opacity:1;fill-rule:nonzero;stroke:none"
         id="path14" /><path
         d="m 2368.06,785.609 c 0.43,-2.468 3.63,-4.839 6.77,-5.968 1.1,-0.411 1.72,-1.211 0.47,-3.789 -8.97,-19.223 -17.21,-30.301 -28.45,-47 -10.34,-15.43 -21.99,-27.473 -36.09,-39.051 -21.27,-17.602 -50.81,-36.762 -75.23,-23.879 -10.85,5.629 -15.54,20.808 -15.33,33.098 0.57,34.562 15.89,70.039 44.28,104.918 34.61,42.605 72.87,64.707 97.98,52.625 25.98,-12.391 17.69,-42.469 6.07,-66.083 -0.87,-1.832 -0.93,-3.378 -0.47,-4.871 z m 278.79,269.281 c 1.87,3.29 -0.1,5.71 -4.26,5.71 -21.7,0 -50.17,-0.05 -72.78,-0.05 -5.39,0 -8.17,-0.66 -10.71,-5.66 -8.34,-16 -110.05,-168.406 -128.98,-198.003 -3.19,-4.516 -7.08,-3.891 -7.53,1.25 -1.92,17.578 -17.1,37.781 -41.02,47.449 -18.23,7.402 -36.05,8.738 -54.58,6.277 -33.45,-4.492 -63.25,-22.144 -89.45,-42.039 -39.49,-30.027 -73.56,-68.933 -117.54,-97.683 -24.01,-15.653 -56.88,-29.301 -78.89,-8.93 -19.91,18.461 -17.66,59.465 12.8,91.176 3.21,3.316 7.06,0.547 6.45,-2.446 -2.87,-14.343 0.67,-28.601 11.54,-38.601 13.3,-11.902 32.31,-13.262 48.59,-5.313 19.21,9.524 30.5,27.903 33.79,48.758 5.09,32.363 -19.82,60.91 -50.99,63.195 -25.32,1.778 -49.6,-7.031 -73.26,-26.562 -11.86,-9.832 -18.6,-17.109 -28.86,-31.699 -2.5,-3.582 -6.34,-3.953 -6.22,1.347 1.19,41.438 -15.96,64.747 -50.21,65.508 -26.59,0.625 -54.99,-13.789 -77.13,-31.445 -24.27,-19.492 -45.49,-45.32 -68.24,-69.59 -2.83,-2.988 -5.3,-2.851 -6.09,2.949 -0.68,27.45 -7.59,54.043 -20.29,72.918 -4.5,6.574 -13.95,9.824 -21.9,5.383 -3.67,-2.012 -16.46,-7.883 -25.74,-15.371 -4.62,-3.801 -6.41,-9.297 -4.39,-16.348 12.28,-41.007 9.57,-87.64 -7.06,-127.019 -15.27,-36.071 -44.97,-68.602 -79.86,-79.61 -22.99,-7.293 -46.9,-3.722 -61.69,16.661 -20.31,28.128 -12.11,77.046 18.16,117.671 26.73,35.762 65.37,58.489 103.93,73.118 4.54,1.75 5.47,4.66 4.19,8.515 -2.1,6.348 -5.43,14.973 -6.81,18.914 -3.53,9.407 -13.44,10.942 -25.52,9.621 -28,-3.261 -53.28,-12.863 -78.24,-26.218 -65.36,-35 -98.12,-102.743 -112.49,-138.985 -6.91,-17.406 -12.83,-28.277 -20.47,-37.898 -10.31,-12.949 -23.23,-24.738 -46.89,-45.508 -2.14,-1.91 -3.73,-5.883 -1.94,-9.57 2.42,-5 14.72,-22.371 18.19,-23.922 3.86,-1.891 8.32,0.75 10.11,2.039 16.55,11.223 36.35,29 46.05,41.062 3.39,4.129 6.88,2.387 8.68,-3.882 9.04,-32.27 32.73,-58.598 65.47,-69.618 59.93,-20.211 122.1,9.039 169.01,59.969 29.83,32.371 40.59,53.192 52.01,67.34 19.37,24 57.58,77.691 103.09,112.164 16.69,12.703 36.44,22.402 46.37,15.969 7.97,-5.156 10.55,-17.168 -2.24,-40.434 -46.4,-84.73 -114.67,-184.277 -127.19,-208.418 -2.28,-4.191 -0.29,-7.48 4.09,-7.48 24.28,0.121 48.35,0.058 70.39,0.058 3.67,0.18 5.32,1.852 7.15,4.43 35.61,55.75 69.12,108.801 105.04,163.652 2.01,3.231 3.87,0.731 3.95,-0.691 0.74,-12.719 3.86,-30.129 11.41,-41.559 13.58,-21.132 32.82,-30.211 54.16,-30.351 16.98,-0.199 25.57,2.379 43.88,9.219 14.9,5.531 26.86,12.781 36.04,19.339 5.36,3.723 6.3,-2.507 6.17,-3.457 -8.24,-44.25 1.93,-96.679 45.91,-118.421 52.63,-25.95 110.45,10.519 143.72,43.449 3.26,3.172 6.75,2.84 7.08,-4 0.71,-12.571 6.39,-27.489 16.79,-37.93 27.88,-27.98 84.14,-16.891 140.6,26.813 36.25,27.98 74.18,67.507 108.44,109.367 1.27,1.621 2.22,4.23 -0.23,6.859 -5.21,5.461 -12.77,11.711 -17.94,16.524 -2.36,2.007 -5.82,1.429 -7.81,-0.071 -35.12,-33.402 -66.73,-71.492 -112.42,-102.992 -15.41,-10.75 -39.96,-19.43 -51,-4.5 -4.3,5.789 -3.81,13.813 0.43,24.332 13.32,33.219 224.23,354.329 235.18,373.269"
         style="fill:#ffffff;fill-opacity:1;fill-rule:nonzero;stroke:none"
         id="path16" /><path
         d="m 1654.55,1016.15 c 0.88,-4.77 2.75,-5.69 4.91,-5.29 10.74,2.15 22.51,11 29.45,21.23 6.36,9.29 9.33,22.7 3.04,28.07 -5.64,4.82 -14.78,3.45 -21.54,-2.53 -13.5,-11.93 -17.61,-28.85 -15.86,-41.48 v 0 M 1116.99,602.809 c -78.64,-0.559 -147.924,48.05 -155.869,132.179 -4.418,46.621 8.762,88.176 35.141,122.407 23.408,30.496 63.018,55.835 96.548,62.031 10.91,2 25.57,0.719 31.63,-6.496 9.51,-11.067 6.77,-23.211 -2.73,-28.067 -25.58,-13.066 -56.36,-35.422 -71.59,-65.945 -12.36,-24.93 -14.85,-54.957 4.02,-83.566 31.58,-47.68 119.61,-48.993 201.46,27.046 20.26,18.614 38.41,36.493 56.85,57.668 36.05,41.223 48.04,56.243 95.96,122.715 0.57,0.766 0.73,1.782 0.48,2.27 -0.4,0.847 -1.07,1.082 -2.46,1.172 -31.99,-0.879 -59.88,-10.422 -86.99,-30.688 -7.8,-5.68 -19.03,-4.883 -23.96,2.61 -5.47,8.464 -1.55,19.511 7.46,25.734 43.61,30.332 91.25,35.828 139.9,44.043 -0.04,0 3.38,-0.168 6.16,3.531 19.97,25.627 35.06,48.757 56.34,74.677 21.44,26.29 49.17,50.44 70.34,68.58 29.55,25.41 48.49,33.96 67.75,44.45 5.07,2.64 -0.65,5.82 -2.19,5.82 -107.53,20.2 -219.3,46.35 -326.1,6.81 -73.95,-27.6 -106.36,-86.25 -90.77,-125.44 11.08,-27.8 47.66,-32.32 81.88,-15.57 28.43,13.94 54.73,36.38 73.38,65.28 10.45,16.05 32.43,4.47 20.56,-23.39 -31.25,-73.46 -90.96,-131.725 -163.68,-134.174 -61.89,-2.012 -101.82,43.514 -101.69,99.684 0.23,110.8 123.59,183.77 253.21,194.68 156.1,12.9 303.95,-28.68 458.94,-47.48 118.75,-14.37 232.6,-14.68 351.96,12.75 14.11,3.06 24.01,-5.95 23.09,-20.2 -1.17,-20.6 -17.12,-40.43 -56.43,-61.88 -44.71,-24.52 -91.48,-31.95 -140.33,-32.35 -118.12,-0.99 -228.15,45.05 -342.01,69.8 0.16,-4.98 1.44,-10.94 -2.74,-14.07 -63.06,-46.53 -120.07,-93.77 -158.26,-160.114 -1.29,-1.535 -0.59,-3 1.64,-2.839 33.15,1.753 62.97,2.617 93.92,5.083 5.4,0.45 5.6,1.8 5.12,5.75 -2.72,22.88 3.95,48.95 24.07,66.89 20.58,18.47 46.37,20.57 63.45,7.26 19.45,-15.14 17.73,-42.37 7.09,-62.79 -10.82,-20.721 -28.68,-31.795 -45.84,-37.178 0,0 -3.58,-0.789 -3.06,-4.051 0.68,-5.234 24.04,-18.183 26.04,-21.628 1.93,-3.286 0.94,-8.372 -2.61,-12.266 -2.49,-2.832 -6.35,-5.5 -11.31,-5.402 -4.02,0.078 -6.46,1.464 -11.57,4.238 -10.49,5.683 -23.59,15.019 -32.32,26.023 -2.99,3.723 -4.49,3.801 -11.93,3.403 -33.49,-1.938 -85.72,-6.985 -121.11,-11.411 -8.56,-1.062 -9.83,-2.664 -11.59,-5.632 C 1435.83,861.738 1375.6,761.43 1309.47,694.27 1238.54,622.262 1179.58,603.301 1116.99,602.809"
         style="fill:#ffffff;fill-opacity:1;fill-rule:nonzero;stroke:none"
         id="path18" /><path
         d="m 1800.8,1351.68 c -735.35,0 -1331.405,-203.21 -1331.405,-451.856 0,-248.676 596.055,-451.894 1331.405,-451.894 735.34,0 1331.36,203.218 1331.36,451.894 0,248.646 -596.02,451.856 -1331.36,451.856 z m 0,-944.7 c -762.12,0 -1379.933,220.649 -1379.933,492.844 0,272.226 617.813,492.846 1379.933,492.846 762.05,0 1379.83,-220.62 1379.83,-492.846 0,-272.195 -617.78,-492.844 -1379.83,-492.844"
         style="fill:#ffffff;fill-opacity:1;fill-rule:nonzero;stroke:none"
         id="path20" /><path
         d="M 3652.89,552.73 H 3600 v 694.5 h 52.89 v -694.5 0"
         style="fill:#192b49;fill-opacity:1;fill-rule:nonzero;stroke:none"
         id="path22" /><path
         d="m 4008.26,1072.84 h 253.32 v -69.56 h -176.24 v -74.725 h 171.54 V 859.941 H 4085.34 V 724.59 h -77.08 v 348.25"
         style="fill:#192b49;fill-opacity:1;fill-rule:nonzero;stroke:none"
         id="path24" /><path
         d="m 4490.95,856.184 c 0,45.117 -14.1,73.308 -64.87,73.308 -51.22,0 -64.85,-28.191 -64.85,-73.308 0,-45.121 13.63,-73.793 64.85,-73.793 50.77,0 64.87,28.672 64.87,73.793 z m -203.98,1.882 c 0,89.289 39.02,138.633 139.11,138.633 100.11,0 138.65,-49.344 138.65,-138.633 0,-89.296 -38.54,-138.644 -138.65,-138.644 -100.09,0 -139.11,49.348 -139.11,138.644"
         style="fill:#192b49;fill-opacity:1;fill-rule:nonzero;stroke:none"
         id="path26" /><path
         d="m 4605.63,986.367 57.34,4.231 7.52,-29.145 c 11.28,16.926 43.71,30.551 85.07,31.965 v -70.496 c -62.51,-0.473 -76.15,-24.914 -76.15,-66.738 V 724.59 h -73.78 v 261.777"
         style="fill:#192b49;fill-opacity:1;fill-rule:nonzero;stroke:none"
         id="path28" /><path
         d="m 4973.15,859.004 c 0,50.281 -14.1,71.437 -67.67,71.437 -48.41,0 -58.28,-29.14 -58.28,-71.437 0,-42.774 9.87,-76.133 58.28,-76.133 50.75,0 67.67,24.902 67.67,76.133 z m -200.68,0 c 0,76.133 24.91,137.695 117.97,137.695 48.41,0 71.44,-10.801 82.71,-24.902 v 117.493 h 73.78 V 727.41 l -56.39,-5.172 -7.52,26.782 c -15.98,-18.79 -43.7,-29.598 -94.93,-29.598 -91.64,0 -115.62,62.969 -115.62,139.582"
         style="fill:#192b49;fill-opacity:1;fill-rule:nonzero;stroke:none"
         id="path30" /><path
         d="m 5273.02,897.07 c 43.7,0 62.5,15.039 62.5,55.457 0,41.828 -17.85,54.513 -63.45,54.513 h -90.7 V 897.07 Z m -166.85,175.77 h 167.32 c 107.14,0 139.11,-45.11 139.11,-116.551 0,-71.434 -30.08,-125.019 -142.87,-125.019 h -88.36 V 724.59 h -75.2 v 348.25"
         style="fill:#192b49;fill-opacity:1;fill-rule:nonzero;stroke:none"
         id="path32" /><path
         d="m 5605.3,835.027 v 9.875 h -6.1 c -93.99,0 -105.27,-7.519 -105.27,-36.191 0,-19.742 10.81,-29.133 44.64,-29.133 46.53,0 66.73,16.453 66.73,55.449 z m -181.4,-32.422 c 0,75.2 52.63,93.059 170.6,93.059 h 10.8 c -0.47,23.965 -6.57,36.184 -52.63,36.184 -32.43,0 -61.1,-11.75 -77.07,-21.621 l -36.66,54.05 c 18.79,12.688 65.8,32.422 121.71,32.422 95.88,0 115.62,-30.547 115.62,-105.742 v -80.828 c 0,-21.16 1.42,-24.449 23.03,-24.449 v -60.149 c -5.17,-1.41 -14.56,-1.883 -31.02,-1.883 -28.19,0 -40.42,5.641 -50.75,26.321 -13.63,-18.328 -43.24,-29.61 -93.53,-29.61 -82.24,0 -100.1,35.711 -100.1,82.246"
         style="fill:#192b49;fill-opacity:1;fill-rule:nonzero;stroke:none"
         id="path34" /><path
         d="m 5739.74,986.367 57.33,4.231 7.52,-29.145 c 11.28,16.926 43.71,30.551 85.07,31.965 v -70.496 c -62.51,-0.473 -76.14,-24.914 -76.14,-66.738 V 724.59 h -73.78 v 261.777"
         style="fill:#192b49;fill-opacity:1;fill-rule:nonzero;stroke:none"
         id="path36" /><path
         d="m 5907.52,990.598 h 47 l 12.69,64.852 57.33,11.75 v -76.602 h 62.98 v -62.981 h -62.98 V 818.113 c 0,-20.683 2.82,-31.965 34.31,-31.965 h 28.67 V 724.59 c -10.81,-0.942 -30.55,-0.942 -43.71,-0.942 -71.91,0 -92.58,24.442 -92.58,83.657 v 120.312 h -43.71 v 62.981"
         style="fill:#192b49;fill-opacity:1;fill-rule:nonzero;stroke:none"
         id="path38" /><path
         d="m 6107.73,753.73 37.6,54.043 c 27.74,-17.863 63.92,-27.722 94,-27.722 37.13,0 47.94,3.758 47.94,22.09 0,15.504 -10.81,18.797 -47.01,23.496 -65.79,8.926 -116.07,18.328 -116.07,87.879 0,54.05 31.95,83.183 116.07,83.183 42.78,0 84.13,-8.457 112.33,-24.433 l -35.25,-57.332 c -18.8,9.863 -47.94,17.382 -74.72,17.382 -37.6,0 -45.12,-6.574 -45.12,-19.269 0,-15.039 9.4,-18.328 43.71,-23.027 67.68,-9.395 117.96,-17.391 117.96,-83.653 0,-61.097 -32.9,-86.008 -124.54,-86.008 -45.59,0 -91.17,9.403 -126.9,33.371"
         style="fill:#192b49;fill-opacity:1;fill-rule:nonzero;stroke:none"
         id="path40" /><path
         d="m 6393.5,809.18 h 85.53 v -84.59 h -85.53 v 84.59"
         style="fill:#192b49;fill-opacity:1;fill-rule:nonzero;stroke:none"
         id="path42" /><path
         d="m 6507.71,858.066 c 0,77.071 24.91,138.633 139.58,138.633 47.93,0 83.66,-15.976 108.09,-43.23 l -51.7,-48.879 c -11.27,11.75 -26.31,24.433 -56.39,24.433 -52.63,0 -65.33,-28.664 -65.33,-72.839 0,-44.18 11.75,-73.793 65.8,-73.793 24.91,0 41.36,8 60.16,25.851 l 46.99,-45.121 c -31.01,-28.66 -57.33,-42.762 -110.91,-42.762 -109.98,0 -136.29,59.692 -136.29,137.707"
         style="fill:#192b49;fill-opacity:1;fill-rule:nonzero;stroke:none"
         id="path44" /><path
         d="m 6973.47,856.184 c 0,45.117 -14.1,73.308 -64.87,73.308 -51.22,0 -64.85,-28.191 -64.85,-73.308 0,-45.121 13.63,-73.793 64.85,-73.793 50.77,0 64.87,28.672 64.87,73.793 z m -203.98,1.882 c 0,89.289 39.02,138.633 139.11,138.633 100.11,0 138.65,-49.344 138.65,-138.633 0,-89.296 -38.54,-138.644 -138.65,-138.644 -100.09,0 -139.11,49.348 -139.11,138.644"
         style="fill:#192b49;fill-opacity:1;fill-rule:nonzero;stroke:none"
         id="path46" /><path
         d="m 7088.15,986.367 57.34,4.231 6.11,-23.032 c 11.75,15.981 39.94,29.133 93.53,29.133 58.27,0 69.08,-13.152 77.54,-30.078 13.63,17.395 42.77,30.078 98.69,30.078 80.37,0 93.05,-44.648 93.05,-110.906 V 724.59 h -74.25 v 146.633 c 0,32.429 -0.47,55.925 -45.12,55.925 -51.22,0 -56.87,-23.964 -56.87,-59.218 V 724.59 h -73.78 v 146.633 c 0,32.429 -0.94,55.925 -45.59,55.925 -51.22,0 -56.87,-23.964 -56.87,-59.218 V 724.59 h -73.78 v 261.777"
         style="fill:#192b49;fill-opacity:1;fill-rule:nonzero;stroke:none"
         id="path48" /></g></g></svg>
