<?xml version="1.0" encoding="utf-8"?>
<!-- Generator: Adobe Illustrator 25.2.1, SVG Export Plug-In . SVG Version: 6.00 Build 0)  -->
<svg version="1.1" id="Layer_1" xmlns="http://www.w3.org/2000/svg" xmlns:xlink="http://www.w3.org/1999/xlink" x="0px" y="0px"
	 viewBox="0 0 40 40" style="enable-background:new 0 0 40 40;" xml:space="preserve">
<style type="text/css">
	.st0{fill:#112B4E;}
	.st1{fill:#FFFFFF;}
</style>
<circle class="st0" cx="20" cy="20" r="20"/>
<g>
	<rect x="6.2" y="17.4" class="st1" width="7.6" height="1.5"/>
	<rect x="4.3" y="14.2" class="st1" width="7.6" height="1.5"/>
	<rect x="4.3" y="20.5" class="st1" width="7.6" height="1.5"/>
	<path class="st1" d="M35.2,19.4l-4.5-4.9c-0.4-0.4-0.9-0.6-1.4-0.6h-3.9V12c0-1.1-0.9-1.9-1.9-1.9H8.3c-1.1,0-1.9,0.9-1.9,1.9v0.7
		h1.5V12c0-0.2,0.2-0.4,0.4-0.4h15.1c0.2,0,0.4,0.2,0.4,0.4v13.2c0,0.2-0.2,0.4-0.4,0.4h-0.2h-5c-0.4-1.6-1.8-2.8-3.5-2.8
		s-3.2,1.2-3.5,2.8H8.3c-0.2,0-0.4-0.2-0.4-0.4v-1.9H6.3v1.9c0,1.1,0.9,1.9,1.9,1.9h2.9c0.4,1.6,1.8,2.8,3.5,2.8s3.2-1.2,3.5-2.8h5
		h0.2h2.9c0.4,1.6,1.8,2.8,3.5,2.8c1.7,0,3.2-1.2,3.5-2.8h0.5c1.1,0,1.9-0.9,1.9-1.9v-4.5C35.7,20.2,35.6,19.7,35.2,19.4z
		 M14.7,28.5c-1.1,0-2.1-0.9-2.1-2.1c0-1.1,0.9-2.1,2.1-2.1s2.1,0.9,2.1,2.1C16.7,27.5,15.8,28.5,14.7,28.5z M29.8,28.5
		c-1.1,0-2.1-0.9-2.1-2.1c0-1.1,0.9-2.1,2.1-2.1c1.1,0,2.1,0.9,2.1,2.1C31.9,27.5,30.9,28.5,29.8,28.5z M33.8,25.6h-0.5
		c-0.4-1.6-1.8-2.8-3.5-2.8c-1.7,0-3.2,1.2-3.5,2.8h-1c0-0.1,0-0.3,0-0.4v-9.9h3.9c0.1,0,0.2,0,0.3,0.1l3.7,4h-4.2
		c-0.2,0-0.4-0.2-0.4-0.4v-2.4h-1.5v2.4c0,1.1,0.9,1.9,1.9,1.9h5.1v4.2C34.2,25.4,34,25.6,33.8,25.6z"/>
</g>
</svg>
