<?xml version="1.0" encoding="utf-8"?>
<!-- Generator: Adobe Illustrator 25.2.1, SVG Export Plug-In . SVG Version: 6.00 Build 0)  -->
<svg version="1.1" id="Layer_1" xmlns="http://www.w3.org/2000/svg" xmlns:xlink="http://www.w3.org/1999/xlink" x="0px" y="0px"
	 viewBox="0 0 48 48" style="enable-background:new 0 0 48 48;max-width:48px;" xml:space="preserve">
<style type="text/css">
	.st0{fill-rule:evenodd;clip-rule:evenodd;fill:white}
	rect,polygon{fill:white}
</style>
<path id="TextMessaging" class="st0" d="M34.4,3c5.7,0,10.4,4.8,10.4,10.8l0,0v10.9c0,6-4.7,10.8-10.4,10.8l0,0v10.8L20.5,35.5h-6.9
	c-5.7,0-10.4-4.9-10.4-10.8l0,0V13.8C3.2,7.8,7.9,3,13.6,3l0,0H34.4z M35.2,5.5H13.1c-4,0-7.3,3.5-7.3,7.9l0,0v11.9
	c0,4.3,3.3,7.9,7.4,7.9l0,0h8.6l9.8,7.9v-7.9h3.7c4,0,7.3-3.6,7.3-7.9l0,0V13.4C42.6,9.1,39.3,5.5,35.2,5.5L35.2,5.5z"/>
<rect x="10.2" y="14.3" width="13.7" height="1.4"/>
<rect x="10.2" y="17.2" width="13.7" height="1.4"/>
<rect x="10.2" y="20.2" width="13.7" height="1.4"/>
<polygon points="28.1,23.9 28.1,26.3 30.2,25.9 36.5,16.9 34.4,15.1 "/>
<polygon points="35.2,14.2 37.2,15.8 38.2,14.6 36.1,12.9 "/>
<rect x="10.2" y="23" width="13.7" height="1.4"/>
</svg>
