<svg id="Layer_1" data-name="Layer 1" xmlns="http://www.w3.org/2000/svg" viewBox="0 0 40 40"><defs><style>.cls-1{fill:#112b4e;}.cls-2{fill:#fff;}</style></defs><circle class="cls-1" cx="20" cy="20" r="20"/><path class="cls-2" d="M18.4,29.4a10,10,0,0,1-5-1.8l1.8-2.9a9.2,9.2,0,0,0,4.9,1.5c2.1,0,2.7-.8,2.7-2.2s-.9-1.9-2.9-2.6-5.7-1.7-5.7-5.6,1.4-5,4.2-5.5V8.2h3.8v2.1a11.5,11.5,0,0,1,3.7,1.2l-1.8,3.2a7.2,7.2,0,0,0-3.8-1c-1.7,0-2.3.7-2.3,1.9s.9,1.7,2.9,2.4,5.7,1.7,5.7,5.7-1.2,5.1-4.4,5.6v2.5H18.4Z"/></svg>